<svg xmlns="http://www.w3.org/2000/svg" viewBox="0 0 1400 820" width="1400" height="820"><rect width="1400" height="820" fill="#161616"/><defs><linearGradient id="fl1" x1="0" y1="0" x2="0" y2="1"><stop offset="0" stop-color="#232323"/><stop offset="1" stop-color="#1c1c1c"/></linearGradient><filter id="sh2" x="-30%" y="-80%" width="160%" height="260%"><feGaussianBlur stdDeviation="3.18"/></filter><clipPath id="clip3"><path d="M46.85,104.50 Q40.32,104.50 40.32,97.97 L40.32,58.03 Q40.32,51.50 46.12,48.50 L57.08,42.84 Q62.88,39.84 69.41,39.84 L109.77,39.84 Q116.30,39.84 116.30,46.37 L116.30,88.06 Q116.30,94.59 110.69,97.93 L105.29,101.16 Q99.68,104.50 93.15,104.50 Z"/></clipPath><linearGradient id="gt4" x1="0" y1="0" x2="1" y2="1"><stop offset="0" stop-color="#48abff"/><stop offset="1" stop-color="#44a2ff"/></linearGradient><linearGradient id="gs5" x1="0" y1="0" x2="0" y2="1"><stop offset="0" stop-color="#2e6fcb"/><stop offset="1" stop-color="#275eac"/></linearGradient><linearGradient id="gf6" x1="0" y1="0" x2="0" y2="1"><stop offset="0" stop-color="#3d91ff"/><stop offset="1" stop-color="#3783ef"/></linearGradient><filter id="sh7" x="-30%" y="-80%" width="160%" height="260%"><feGaussianBlur stdDeviation="3.46"/></filter><clipPath id="clip8"><path d="M-25.20,6.84 Q-32.30,6.84 -32.30,-0.27 L-32.30,-43.73 Q-32.30,-50.84 -25.99,-54.10 L-14.07,-60.27 Q-7.75,-63.53 -0.65,-63.53 L43.29,-63.53 Q50.39,-63.53 50.39,-56.43 L50.39,-11.05 Q50.39,-3.95 44.29,-0.31 L38.41,3.20 Q32.30,6.84 25.20,6.84 Z"/></clipPath><linearGradient id="gt9" x1="0" y1="0" x2="1" y2="1"><stop offset="0" stop-color="#48abff"/><stop offset="1" stop-color="#44a2ff"/></linearGradient><linearGradient id="gs10" x1="0" y1="0" x2="0" y2="1"><stop offset="0" stop-color="#2e6fcb"/><stop offset="1" stop-color="#275eac"/></linearGradient><linearGradient id="gf11" x1="0" y1="0" x2="0" y2="1"><stop offset="0" stop-color="#3d91ff"/><stop offset="1" stop-color="#3783ef"/></linearGradient><filter id="sh12" x="-30%" y="-80%" width="160%" height="260%"><feGaussianBlur stdDeviation="3.26"/></filter><clipPath id="clip13"><path d="M-23.75,5.18 Q-30.45,5.18 -30.45,-1.51 L-30.45,-42.49 Q-30.45,-49.18 -24.50,-52.26 L-13.26,-58.07 Q-7.31,-61.14 -0.61,-61.14 L40.80,-61.14 Q47.49,-61.14 47.49,-54.45 L47.49,-11.68 Q47.49,-4.98 41.74,-1.55 L36.20,1.75 Q30.45,5.18 23.75,5.18 Z"/></clipPath><linearGradient id="gt14" x1="0" y1="0" x2="1" y2="1"><stop offset="0" stop-color="#f6c59d"/><stop offset="1" stop-color="#e9ba95"/></linearGradient><linearGradient id="gs15" x1="0" y1="0" x2="0" y2="1"><stop offset="0" stop-color="#9f8066"/><stop offset="1" stop-color="#886d57"/></linearGradient><linearGradient id="gf16" x1="0" y1="0" x2="0" y2="1"><stop offset="0" stop-color="#d1a786"/><stop offset="1" stop-color="#bc9779"/></linearGradient><filter id="sh17" x="-30%" y="-80%" width="160%" height="260%"><feGaussianBlur stdDeviation="3.00"/></filter><clipPath id="clip18"><path d="M-21.81,2.97 Q-27.96,2.97 -27.96,-3.18 L-27.96,-40.82 Q-27.96,-46.97 -22.50,-49.79 L-12.18,-55.13 Q-6.71,-57.95 -0.56,-57.95 L37.47,-57.95 Q43.62,-57.95 43.62,-51.80 L43.62,-12.52 Q43.62,-6.37 38.34,-3.22 L33.25,-0.18 Q27.96,2.97 21.81,2.97 Z"/></clipPath><linearGradient id="gt19" x1="0" y1="0" x2="1" y2="1"><stop offset="0" stop-color="#fffe83"/><stop offset="1" stop-color="#fff07c"/></linearGradient><linearGradient id="gs20" x1="0" y1="0" x2="0" y2="1"><stop offset="0" stop-color="#c1a555"/><stop offset="1" stop-color="#a48c48"/></linearGradient><linearGradient id="gf21" x1="0" y1="0" x2="0" y2="1"><stop offset="0" stop-color="#fbd76f"/><stop offset="1" stop-color="#e3c264"/></linearGradient><filter id="sh22" x="-30%" y="-80%" width="160%" height="260%"><feGaussianBlur stdDeviation="3.35"/></filter><clipPath id="clip23"><path d="M-24.39,5.92 Q-31.27,5.92 -31.27,-0.96 L-31.27,-43.04 Q-31.27,-49.92 -25.16,-53.07 L-13.61,-59.04 Q-7.50,-62.20 -0.63,-62.20 L41.90,-62.20 Q48.77,-62.20 48.77,-55.32 L48.77,-11.40 Q48.77,-4.52 42.87,-1.00 L37.17,2.39 Q31.27,5.92 24.39,5.92 Z"/></clipPath><linearGradient id="gt24" x1="0" y1="0" x2="1" y2="1"><stop offset="0" stop-color="#ffffff"/><stop offset="1" stop-color="#ffffff"/></linearGradient><linearGradient id="gs25" x1="0" y1="0" x2="0" y2="1"><stop offset="0" stop-color="#bfbdb7"/><stop offset="1" stop-color="#a2a19c"/></linearGradient><linearGradient id="gf26" x1="0" y1="0" x2="0" y2="1"><stop offset="0" stop-color="#f9f6ef"/><stop offset="1" stop-color="#e1ded8"/></linearGradient></defs>
<path d="M252.0,190 L1148.0,190 L1344.0,730 L56.0,730 Z" fill="url(#fl1)"/>
<path d="M326.7,190.0 L163.3,730.0" stroke="#2c2c2c" stroke-width="1"/>
<path d="M401.3,190.0 L270.7,730.0" stroke="#2c2c2c" stroke-width="1"/>
<path d="M476.0,190.0 L378.0,730.0" stroke="#2c2c2c" stroke-width="1"/>
<path d="M550.7,190.0 L485.3,730.0" stroke="#2c2c2c" stroke-width="1"/>
<path d="M625.3,190.0 L592.7,730.0" stroke="#2c2c2c" stroke-width="1"/>
<path d="M700.0,190.0 L700.0,730.0" stroke="#2c2c2c" stroke-width="1"/>
<path d="M774.7,190.0 L807.3,730.0" stroke="#2c2c2c" stroke-width="1"/>
<path d="M849.3,190.0 L914.7,730.0" stroke="#2c2c2c" stroke-width="1"/>
<path d="M924.0,190.0 L1022.0,730.0" stroke="#2c2c2c" stroke-width="1"/>
<path d="M998.7,190.0 L1129.3,730.0" stroke="#2c2c2c" stroke-width="1"/>
<path d="M1073.3,190.0 L1236.7,730.0" stroke="#2c2c2c" stroke-width="1"/>
<path d="M219.3,280.0 L1180.7,280.0" stroke="#2c2c2c" stroke-width="1"/>
<path d="M186.7,370.0 L1213.3,370.0" stroke="#2c2c2c" stroke-width="1"/>
<path d="M154.0,460.0 L1246.0,460.0" stroke="#2c2c2c" stroke-width="1"/>
<path d="M121.3,550.0 L1278.7,550.0" stroke="#2c2c2c" stroke-width="1"/>
<path d="M88.7,640.0 L1311.3,640.0" stroke="#2c2c2c" stroke-width="1"/>
<ellipse cx="74.99" cy="108.74" rx="36.80" ry="4.77" fill="#000" opacity="0.45" filter="url(#sh2)"/>
<g transform="translate(0.00,0.00)">
<g clip-path="url(#clip3)">
<rect x="39.31999999999999" y="38.84" width="77.98080000000002" height="66.66" fill="url(#gf6)"/>
<polygon points="40.32,51.50 99.68,51.50 116.30,39.84 62.88,39.84" fill="url(#gt4)"/>
<polygon points="99.68,51.50 116.30,39.84 116.30,94.59 99.68,104.50" fill="url(#gs5)"/>
</g>
<rect x="52.79" y="72.68" width="13.06" height="5.34" rx="2.67" fill="#151515"/>
<rect x="74.16" y="72.68" width="13.06" height="5.34" rx="2.67" fill="#151515"/>
</g>
<text x="120" y="92" font-size="40" font-weight="bold" font-family="sans-serif" fill="#f0ede6" letter-spacing="2">z6 HAKONIWA</text>
<text class="L-en" x="122" y="118" font-size="13" font-family="sans-serif" fill="#8a8a8a">4 HAKO · 0 graduated</text><text class="L-ja" display="none" x="122" y="118" font-size="13" font-family="sans-serif" fill="#8a8a8a">4 HAKO　卒業 0</text>
<g transform="translate(816.9,311.5) scale(0.525)">
<ellipse cx="5.43" cy="11.46" rx="40.06" ry="5.19" fill="#000" opacity="0.45" filter="url(#sh7)"/>
<g transform="translate(0.00,0.00)">
<animateTransform attributeName="transform" type="translate" values="0 0;0 -10.88;0 0" dur="0.8s" begin="-0.77s" calcMode="spline" keySplines="0.42 0 0.58 1;0.42 0 0.58 1" additive="sum" repeatCount="indefinite"/>
<g clip-path="url(#clip8)">
<rect x="-33.30243278273414" y="-64.53169929208674" width="84.69422792379939" height="72.37315713381365" fill="url(#gf11)"/>
<polygon points="-32.30,-50.84 32.30,-50.84 50.39,-63.53 -7.75,-63.53" fill="url(#gt9)"/>
<polygon points="32.30,-50.84 50.39,-63.53 50.39,-3.95 32.30,6.84" fill="url(#gs10)"/>
</g>
<rect x="-18.74" y="-27.79" width="14.21" height="5.81" rx="2.91" fill="#151515"/>
<rect x="4.52" y="-27.79" width="14.21" height="5.81" rx="2.91" fill="#151515"/>
</g>
<g opacity="0"><animate attributeName="opacity" values="0;1;1;0" dur="1.8s" begin="0.0s" repeatCount="indefinite"/><animateTransform attributeName="transform" type="translate" values="0 0;0 -20.19" dur="1.8s" begin="0.0s" additive="sum" repeatCount="indefinite"/>
<circle cx="61.93" cy="-4.70" r="5.77" fill="#f6c343" stroke="#e9b02c" stroke-width="1.15"/>
<rect x="60.89" y="-7.29" width="2.08" height="5.19" rx="0.58" fill="#e9b02c"/>
</g>
<g opacity="0"><animate attributeName="opacity" values="0;1;1;0" dur="1.8s" begin="-0.6s" repeatCount="indefinite"/><animateTransform attributeName="transform" type="translate" values="0 0;0 -20.19" dur="1.8s" begin="-0.6s" additive="sum" repeatCount="indefinite"/>
<circle cx="67.70" cy="-4.70" r="5.77" fill="#f6c343" stroke="#e9b02c" stroke-width="1.15"/>
<rect x="66.66" y="-7.29" width="2.08" height="5.19" rx="0.58" fill="#e9b02c"/>
</g>
<g opacity="0"><animate attributeName="opacity" values="0;1;1;0" dur="1.8s" begin="-1.2s" repeatCount="indefinite"/><animateTransform attributeName="transform" type="translate" values="0 0;0 -20.19" dur="1.8s" begin="-1.2s" additive="sum" repeatCount="indefinite"/>
<circle cx="73.46" cy="-4.70" r="5.77" fill="#f6c343" stroke="#e9b02c" stroke-width="1.15"/>
<rect x="72.43" y="-7.29" width="2.08" height="5.19" rx="0.58" fill="#e9b02c"/>
</g>
<g><animate attributeName="opacity" values="0;1;0" dur="1.2s" begin="0s" repeatCount="indefinite"/>
<polygon points="60.46,-88.91 62.29,-84.51 67.04,-84.13 63.42,-81.03 64.53,-76.39 60.46,-78.88 56.39,-76.39 57.50,-81.03 53.88,-84.13 58.63,-84.51" fill="#f6c343"/>
</g>
</g>
<g transform="translate(819.7,421.8) scale(0.566)">
<ellipse cx="5.11" cy="9.53" rx="37.75" ry="4.89" fill="#000" opacity="0.45" filter="url(#sh12)"/>
<g transform="translate(0.00,0.00)">
<animateTransform attributeName="transform" type="translate" values="0 0;0 -8.16;0 0" dur="1.1s" begin="-0.13s" calcMode="spline" keySplines="0.42 0 0.58 1;0.42 0 0.58 1" additive="sum" repeatCount="indefinite"/>
<g clip-path="url(#clip13)">
<rect x="-31.44524524810198" y="-62.143886747559684" width="79.93982783514107" height="68.32714143336503" fill="url(#gf16)"/>
<polygon points="-30.45,-49.18 30.45,-49.18 47.49,-61.14 -7.31,-61.14" fill="url(#gt14)"/>
<polygon points="30.45,-49.18 47.49,-61.14 47.49,-4.98 30.45,5.18" fill="url(#gs15)"/>
</g>
<rect x="-16.44" y="-27.46" width="13.40" height="5.48" rx="2.74" fill="#151515"/>
<rect x="3.04" y="-27.46" width="13.40" height="5.48" rx="2.74" fill="#151515"/>
</g>
</g>
<g transform="translate(456.1,435.2) scale(0.571)">
<ellipse cx="4.70" cy="6.96" rx="34.68" ry="4.49" fill="#000" opacity="0.45" filter="url(#sh17)"/>
<g transform="translate(0.00,0.00)">
<animateTransform attributeName="transform" type="translate" values="0 0;0 -6.19;0 0" dur="0.7s" begin="-0.35s" calcMode="spline" keySplines="0.42 0 0.58 1;0.42 0 0.58 1" additive="sum" repeatCount="indefinite"/>
<g clip-path="url(#clip18)">
<rect x="-28.964723416088127" y="-58.9546443921133" width="73.5896919451856" height="62.92314744219198" fill="url(#gf21)"/>
<polygon points="-27.96,-46.97 27.96,-46.97 43.62,-57.95 -6.71,-57.95" fill="url(#gt19)"/>
<polygon points="27.96,-46.97 43.62,-57.95 43.62,-6.37 27.96,2.97" fill="url(#gs20)"/>
</g>
<rect x="-17.34" y="-27.01" width="12.30" height="5.03" rx="2.52" fill="#151515"/>
<rect x="5.03" y="-27.01" width="12.30" height="5.03" rx="2.52" fill="#151515"/>
</g>
<path d="M-15.91,-1.03 q2.10,13.98 17.48,13.98 q15.38,0 17.48,-13.98 Z" fill="#e6e2d8"/>
<path d="M-15.91,-1.03 q17.48,5.59 34.96,0" stroke="#c9c4b8" stroke-width="1.05" fill="none"/>
<ellipse cx="1.57" cy="-1.03" rx="17.48" ry="3.50" fill="#f2cf6b"/>
<ellipse cx="1.57" cy="-2.42" rx="12.58" ry="2.45" fill="#f5a06e"/>
<g opacity="0"><animate attributeName="opacity" values="0;0.9;0" dur="1.6s" begin="0.00s" repeatCount="indefinite"/><animateTransform attributeName="transform" type="translate" values="0 0;0 -17.48" dur="1.6s" begin="0.00s" additive="sum" repeatCount="indefinite"/>
<path d="M-4.73,-5.02 q2.10,-4.19 0,-8.39" stroke="#ddd" stroke-width="1.22" fill="none" stroke-linecap="round"/></g>
<g opacity="0"><animate attributeName="opacity" values="0;0.9;0" dur="1.6s" begin="-0.53s" repeatCount="indefinite"/><animateTransform attributeName="transform" type="translate" values="0 0;0 -17.48" dur="1.6s" begin="-0.53s" additive="sum" repeatCount="indefinite"/>
<path d="M2.27,-5.02 q2.10,-4.19 0,-8.39" stroke="#ddd" stroke-width="1.22" fill="none" stroke-linecap="round"/></g>
<g opacity="0"><animate attributeName="opacity" values="0;0.9;0" dur="1.6s" begin="-1.06s" repeatCount="indefinite"/><animateTransform attributeName="transform" type="translate" values="0 0;0 -17.48" dur="1.6s" begin="-1.06s" additive="sum" repeatCount="indefinite"/>
<path d="M9.26,-5.02 q2.10,-4.19 0,-8.39" stroke="#ddd" stroke-width="1.22" fill="none" stroke-linecap="round"/></g>
</g>
<g transform="translate(215.8,705.2) scale(0.671)">
<ellipse cx="5.25" cy="10.38" rx="38.77" ry="5.02" fill="#000" opacity="0.45" filter="url(#sh22)"/>
<g transform="translate(0.00,0.00)">
<animateTransform attributeName="transform" type="translate" values="0 0;0 -5.89;0 0" dur="0.7s" begin="-0.36s" calcMode="spline" keySplines="0.42 0 0.58 1;0.42 0 0.58 1" additive="sum" repeatCount="indefinite"/>
<g clip-path="url(#clip23)">
<rect x="-32.26537392017123" y="-63.198337897363004" width="82.03935723563833" height="70.1138503260873" fill="url(#gf26)"/>
<polygon points="-31.27,-49.92 31.27,-49.92 48.77,-62.20 -7.50,-62.20" fill="url(#gt24)"/>
<polygon points="31.27,-49.92 48.77,-62.20 48.77,-4.52 31.27,5.92" fill="url(#gs25)"/>
</g>
<rect x="-19.38" y="-27.61" width="13.76" height="5.63" rx="2.81" fill="#151515"/>
<rect x="5.63" y="-27.61" width="13.76" height="5.63" rx="2.81" fill="#151515"/>
</g>
<path d="M-17.79,1.45 q2.34,15.63 19.54,15.63 q17.20,0 19.54,-15.63 Z" fill="#e6e2d8"/>
<path d="M-17.79,1.45 q19.54,6.25 39.08,0" stroke="#c9c4b8" stroke-width="1.17" fill="none"/>
<ellipse cx="1.75" cy="1.45" rx="19.54" ry="3.91" fill="#f2cf6b"/>
<ellipse cx="1.75" cy="-0.11" rx="14.07" ry="2.74" fill="#f5a06e"/>
<g opacity="0"><animate attributeName="opacity" values="0;0.9;0" dur="1.6s" begin="0.00s" repeatCount="indefinite"/><animateTransform attributeName="transform" type="translate" values="0 0;0 -19.54" dur="1.6s" begin="0.00s" additive="sum" repeatCount="indefinite"/>
<path d="M-5.28,-3.02 q2.34,-4.69 0,-9.38" stroke="#ddd" stroke-width="1.37" fill="none" stroke-linecap="round"/></g>
<g opacity="0"><animate attributeName="opacity" values="0;0.9;0" dur="1.6s" begin="-0.53s" repeatCount="indefinite"/><animateTransform attributeName="transform" type="translate" values="0 0;0 -19.54" dur="1.6s" begin="-0.53s" additive="sum" repeatCount="indefinite"/>
<path d="M2.53,-3.02 q2.34,-4.69 0,-9.38" stroke="#ddd" stroke-width="1.37" fill="none" stroke-linecap="round"/></g>
<g opacity="0"><animate attributeName="opacity" values="0;0.9;0" dur="1.6s" begin="-1.06s" repeatCount="indefinite"/><animateTransform attributeName="transform" type="translate" values="0 0;0 -19.54" dur="1.6s" begin="-1.06s" additive="sum" repeatCount="indefinite"/>
<path d="M10.35,-3.02 q2.34,-4.69 0,-9.38" stroke="#ddd" stroke-width="1.37" fill="none" stroke-linecap="round"/></g>
</g>
</svg>