<svg xmlns="http://www.w3.org/2000/svg" viewBox="0 0 1400 820" width="1400" height="820"><rect width="1400" height="820" fill="#161616"/><defs><linearGradient id="fl1" x1="0" y1="0" x2="0" y2="1"><stop offset="0" stop-color="#232323"/><stop offset="1" stop-color="#1c1c1c"/></linearGradient><filter id="sh2" x="-30%" y="-80%" width="160%" height="260%"><feGaussianBlur stdDeviation="3.18"/></filter><clipPath id="clip3"><path d="M46.85,104.50 Q40.32,104.50 40.32,97.97 L40.32,58.03 Q40.32,51.50 46.12,48.50 L57.08,42.84 Q62.88,39.84 69.41,39.84 L109.77,39.84 Q116.30,39.84 116.30,46.37 L116.30,88.06 Q116.30,94.59 110.69,97.93 L105.29,101.16 Q99.68,104.50 93.15,104.50 Z"/></clipPath><linearGradient id="gt4" x1="0" y1="0" x2="1" y2="1"><stop offset="0" stop-color="#48abff"/><stop offset="1" stop-color="#44a2ff"/></linearGradient><linearGradient id="gs5" x1="0" y1="0" x2="0" y2="1"><stop offset="0" stop-color="#2e6fcb"/><stop offset="1" stop-color="#275eac"/></linearGradient><linearGradient id="gf6" x1="0" y1="0" x2="0" y2="1"><stop offset="0" stop-color="#3d91ff"/><stop offset="1" stop-color="#3783ef"/></linearGradient><filter id="sh7" x="-30%" y="-80%" width="160%" height="260%"><feGaussianBlur stdDeviation="3.18"/></filter><clipPath id="clip8"><path d="M-23.15,4.50 Q-29.68,4.50 -29.68,-2.03 L-29.68,-41.97 Q-29.68,-48.50 -23.88,-51.50 L-12.92,-57.16 Q-7.12,-60.16 -0.59,-60.16 L39.77,-60.16 Q46.30,-60.16 46.30,-53.63 L46.30,-11.94 Q46.30,-5.41 40.69,-2.07 L35.29,1.16 Q29.68,4.50 23.15,4.50 Z"/></clipPath><linearGradient id="gt9" x1="0" y1="0" x2="1" y2="1"><stop offset="0" stop-color="#f6c59d"/><stop offset="1" stop-color="#e9ba95"/></linearGradient><linearGradient id="gs10" x1="0" y1="0" x2="0" y2="1"><stop offset="0" stop-color="#9f8066"/><stop offset="1" stop-color="#886d57"/></linearGradient><linearGradient id="gf11" x1="0" y1="0" x2="0" y2="1"><stop offset="0" stop-color="#d1a786"/><stop offset="1" stop-color="#bc9779"/></linearGradient><filter id="sh12" x="-30%" y="-80%" width="160%" height="260%"><feGaussianBlur stdDeviation="3.90"/></filter><clipPath id="clip13"><path d="M-28.42,10.53 Q-36.43,10.53 -36.43,2.51 L-36.43,-46.51 Q-36.43,-54.53 -29.31,-58.21 L-15.86,-65.16 Q-8.74,-68.84 -0.73,-68.84 L48.82,-68.84 Q56.83,-68.84 56.83,-60.82 L56.83,-9.65 Q56.83,-1.64 49.95,2.47 L43.31,6.42 Q36.43,10.53 28.42,10.53 Z"/></clipPath><linearGradient id="gt14" x1="0" y1="0" x2="1" y2="1"><stop offset="0" stop-color="#48abff"/><stop offset="1" stop-color="#44a2ff"/></linearGradient><linearGradient id="gs15" x1="0" y1="0" x2="0" y2="1"><stop offset="0" stop-color="#2e6fcb"/><stop offset="1" stop-color="#275eac"/></linearGradient><linearGradient id="gf16" x1="0" y1="0" x2="0" y2="1"><stop offset="0" stop-color="#3d91ff"/><stop offset="1" stop-color="#3783ef"/></linearGradient><filter id="sh17" x="-30%" y="-80%" width="160%" height="260%"><feGaussianBlur stdDeviation="3.26"/></filter><clipPath id="clip18"><path d="M-23.75,5.18 Q-30.45,5.18 -30.45,-1.51 L-30.45,-42.49 Q-30.45,-49.18 -24.50,-52.26 L-13.26,-58.07 Q-7.31,-61.14 -0.61,-61.14 L40.80,-61.14 Q47.49,-61.14 47.49,-54.45 L47.49,-11.68 Q47.49,-4.98 41.74,-1.55 L36.20,1.75 Q30.45,5.18 23.75,5.18 Z"/></clipPath><linearGradient id="gt19" x1="0" y1="0" x2="1" y2="1"><stop offset="0" stop-color="#f6c59d"/><stop offset="1" stop-color="#e9ba95"/></linearGradient><linearGradient id="gs20" x1="0" y1="0" x2="0" y2="1"><stop offset="0" stop-color="#9f8066"/><stop offset="1" stop-color="#886d57"/></linearGradient><linearGradient id="gf21" x1="0" y1="0" x2="0" y2="1"><stop offset="0" stop-color="#d1a786"/><stop offset="1" stop-color="#bc9779"/></linearGradient><filter id="sh22" x="-30%" y="-80%" width="160%" height="260%"><feGaussianBlur stdDeviation="3.32"/></filter><clipPath id="clip23"><path d="M-24.20,5.70 Q-31.02,5.70 -31.02,-1.13 L-31.02,-42.87 Q-31.02,-49.70 -24.96,-52.83 L-13.51,-58.75 Q-7.44,-61.88 -0.62,-61.88 L41.57,-61.88 Q48.39,-61.88 48.39,-55.06 L48.39,-11.49 Q48.39,-4.66 42.53,-1.17 L36.88,2.20 Q31.02,5.70 24.20,5.70 Z"/></clipPath><linearGradient id="gt24" x1="0" y1="0" x2="1" y2="1"><stop offset="0" stop-color="#e7cc81"/><stop offset="1" stop-color="#dac17a"/></linearGradient><linearGradient id="gs25" x1="0" y1="0" x2="0" y2="1"><stop offset="0" stop-color="#968454"/><stop offset="1" stop-color="#7f7147"/></linearGradient><linearGradient id="gf26" x1="0" y1="0" x2="0" y2="1"><stop offset="0" stop-color="#c3ad6e"/><stop offset="1" stop-color="#b09c63"/></linearGradient><filter id="sh27" x="-30%" y="-80%" width="160%" height="260%"><feGaussianBlur stdDeviation="3.81"/></filter><clipPath id="clip28"><path d="M-27.72,9.73 Q-35.54,9.73 -35.54,1.91 L-35.54,-45.91 Q-35.54,-53.73 -28.59,-57.32 L-15.47,-64.10 Q-8.53,-67.69 -0.71,-67.69 L47.62,-67.69 Q55.43,-67.69 55.43,-59.87 L55.43,-9.96 Q55.43,-2.14 48.72,1.87 L42.25,5.72 Q35.54,9.73 27.72,9.73 Z"/></clipPath><linearGradient id="gt29" x1="0" y1="0" x2="1" y2="1"><stop offset="0" stop-color="#ffffff"/><stop offset="1" stop-color="#ffffff"/></linearGradient><linearGradient id="gs30" x1="0" y1="0" x2="0" y2="1"><stop offset="0" stop-color="#bfbdb7"/><stop offset="1" stop-color="#a2a19c"/></linearGradient><linearGradient id="gf31" x1="0" y1="0" x2="0" y2="1"><stop offset="0" stop-color="#f9f6ef"/><stop offset="1" stop-color="#e1ded8"/></linearGradient></defs>
<path d="M252.0,190 L1148.0,190 L1344.0,730 L56.0,730 Z" fill="url(#fl1)"/>
<path d="M326.7,190.0 L163.3,730.0" stroke="#2c2c2c" stroke-width="1"/>
<path d="M401.3,190.0 L270.7,730.0" stroke="#2c2c2c" stroke-width="1"/>
<path d="M476.0,190.0 L378.0,730.0" stroke="#2c2c2c" stroke-width="1"/>
<path d="M550.7,190.0 L485.3,730.0" stroke="#2c2c2c" stroke-width="1"/>
<path d="M625.3,190.0 L592.7,730.0" stroke="#2c2c2c" stroke-width="1"/>
<path d="M700.0,190.0 L700.0,730.0" stroke="#2c2c2c" stroke-width="1"/>
<path d="M774.7,190.0 L807.3,730.0" stroke="#2c2c2c" stroke-width="1"/>
<path d="M849.3,190.0 L914.7,730.0" stroke="#2c2c2c" stroke-width="1"/>
<path d="M924.0,190.0 L1022.0,730.0" stroke="#2c2c2c" stroke-width="1"/>
<path d="M998.7,190.0 L1129.3,730.0" stroke="#2c2c2c" stroke-width="1"/>
<path d="M1073.3,190.0 L1236.7,730.0" stroke="#2c2c2c" stroke-width="1"/>
<path d="M219.3,280.0 L1180.7,280.0" stroke="#2c2c2c" stroke-width="1"/>
<path d="M186.7,370.0 L1213.3,370.0" stroke="#2c2c2c" stroke-width="1"/>
<path d="M154.0,460.0 L1246.0,460.0" stroke="#2c2c2c" stroke-width="1"/>
<path d="M121.3,550.0 L1278.7,550.0" stroke="#2c2c2c" stroke-width="1"/>
<path d="M88.7,640.0 L1311.3,640.0" stroke="#2c2c2c" stroke-width="1"/>
<ellipse cx="74.99" cy="108.74" rx="36.80" ry="4.77" fill="#000" opacity="0.45" filter="url(#sh2)"/>
<g transform="translate(0.00,0.00)">
<g clip-path="url(#clip3)">
<rect x="39.31999999999999" y="38.84" width="77.98080000000002" height="66.66" fill="url(#gf6)"/>
<polygon points="40.32,51.50 99.68,51.50 116.30,39.84 62.88,39.84" fill="url(#gt4)"/>
<polygon points="99.68,51.50 116.30,39.84 116.30,94.59 99.68,104.50" fill="url(#gs5)"/>
</g>
<rect x="52.79" y="72.68" width="13.06" height="5.34" rx="2.67" fill="#151515"/>
<rect x="74.16" y="72.68" width="13.06" height="5.34" rx="2.67" fill="#151515"/>
</g>
<text x="120" y="92" font-size="40" font-weight="bold" font-family="sans-serif" fill="#f0ede6" letter-spacing="2">z6 HAKONIWA</text>
<text class="L-en" x="122" y="118" font-size="13" font-family="sans-serif" fill="#8a8a8a">5 HAKO · 0 graduated</text><text class="L-ja" display="none" x="122" y="118" font-size="13" font-family="sans-serif" fill="#8a8a8a">5 HAKO　卒業 0</text>
<path d="M215.8,698.5 Q336.0,543.0 456.1,430.7" fill="none" stroke="#5ec99a" stroke-width="7.00" opacity="0.79" stroke-linecap="round"/>
<circle cx="336.0" cy="553.8" r="12.4" fill="#1a1a1a" stroke="#5ec99a" stroke-width="1.6" opacity="0.95"/>
<text x="336.0" y="557.3" font-size="10" font-family="system-ui,sans-serif" fill="#5ec99a" text-anchor="middle" font-weight="bold">22</text>
<path d="M215.8,698.5 Q516.3,481.2 816.9,307.9" fill="none" stroke="#3fbfd9" stroke-width="7.00" opacity="0.78" stroke-linecap="round"/>
<circle cx="516.3" cy="492.2" r="12.4" fill="#1a1a1a" stroke="#3fbfd9" stroke-width="1.6" opacity="0.95"/>
<text x="516.3" y="495.7" font-size="10" font-family="system-ui,sans-serif" fill="#3fbfd9" text-anchor="middle" font-weight="bold">13</text>
<path d="M819.7,417.3 Q637.9,402.2 456.1,430.7" fill="none" stroke="#5ec99a" stroke-width="1.80" opacity="0.42" stroke-linecap="round"/>
<path d="M819.7,417.3 Q818.3,356.1 816.9,307.9" fill="none" stroke="#3fbfd9" stroke-width="1.80" opacity="0.42" stroke-linecap="round"/>
<g transform="translate(749.5,214.8) scale(0.489)">
<ellipse cx="4.99" cy="8.74" rx="36.80" ry="4.77" fill="#000" opacity="0.45" filter="url(#sh7)"/>
<g transform="translate(0.00,0.00)">
<animateTransform attributeName="transform" type="translate" values="-7.67 0;7.67 0;-7.67 0" dur="2.2199999999999998s" begin="-1.63s" calcMode="spline" keySplines="0.42 0 0.58 1;0.42 0 0.58 1" additive="sum" repeatCount="indefinite"/>
<g clip-path="url(#clip8)">
<rect x="-30.680000000000003" y="-61.16" width="77.98080000000002" height="66.66" fill="url(#gf11)"/>
<polygon points="-29.68,-48.50 29.68,-48.50 46.30,-60.16 -7.12,-60.16" fill="url(#gt9)"/>
<polygon points="29.68,-48.50 46.30,-60.16 46.30,-5.41 29.68,4.50" fill="url(#gs10)"/>
</g>
<rect x="-16.03" y="-27.32" width="13.06" height="5.34" rx="2.67" fill="#151515"/>
<rect x="2.97" y="-27.32" width="13.06" height="5.34" rx="2.67" fill="#151515"/>
<path d="M4.75,-53.27 L17.81,-53.27 Q13.65,-70.23 12.47,-75.53 Q7.72,-65.99 4.75,-53.27 Z" fill="#f0e6c8"/>
</g>
</g>
<g transform="translate(816.9,311.5) scale(0.525)">
<ellipse cx="6.12" cy="15.73" rx="45.17" ry="5.85" fill="#000" opacity="0.45" filter="url(#sh12)"/>
<g transform="translate(0.00,0.00)">
<animateTransform attributeName="transform" type="translate" values="0 0;0 -12.27;0 0" dur="0.8s" begin="-0.77s" calcMode="spline" keySplines="0.42 0 0.58 1;0.42 0 0.58 1" additive="sum" repeatCount="indefinite"/>
<g clip-path="url(#clip13)">
<rect x="-37.42986966945099" y="-69.83840386072269" width="95.26046635379453" height="81.36507320844679" fill="url(#gf16)"/>
<polygon points="-36.43,-54.53 36.43,-54.53 56.83,-68.84 -8.74,-68.84" fill="url(#gt14)"/>
<polygon points="36.43,-54.53 56.83,-68.84 56.83,-1.64 36.43,10.53" fill="url(#gs15)"/>
</g>
<rect x="-21.13" y="-28.53" width="16.03" height="6.56" rx="3.28" fill="#151515"/>
<rect x="5.10" y="-28.53" width="16.03" height="6.56" rx="3.28" fill="#151515"/>
</g>
<g opacity="0"><animate attributeName="opacity" values="0;1;1;0" dur="1.8s" begin="0.0s" repeatCount="indefinite"/><animateTransform attributeName="transform" type="translate" values="0 0;0 -22.77" dur="1.8s" begin="0.0s" additive="sum" repeatCount="indefinite"/>
<circle cx="69.84" cy="-2.48" r="6.51" fill="#f6c343" stroke="#e9b02c" stroke-width="1.30"/>
<rect x="68.67" y="-5.41" width="2.34" height="5.85" rx="0.65" fill="#e9b02c"/>
</g>
<g opacity="0"><animate attributeName="opacity" values="0;1;1;0" dur="1.8s" begin="-0.6s" repeatCount="indefinite"/><animateTransform attributeName="transform" type="translate" values="0 0;0 -22.77" dur="1.8s" begin="-0.6s" additive="sum" repeatCount="indefinite"/>
<circle cx="76.35" cy="-2.48" r="6.51" fill="#f6c343" stroke="#e9b02c" stroke-width="1.30"/>
<rect x="75.18" y="-5.41" width="2.34" height="5.85" rx="0.65" fill="#e9b02c"/>
</g>
<g opacity="0"><animate attributeName="opacity" values="0;1;1;0" dur="1.8s" begin="-1.2s" repeatCount="indefinite"/><animateTransform attributeName="transform" type="translate" values="0 0;0 -22.77" dur="1.8s" begin="-1.2s" additive="sum" repeatCount="indefinite"/>
<circle cx="82.85" cy="-2.48" r="6.51" fill="#f6c343" stroke="#e9b02c" stroke-width="1.30"/>
<rect x="81.68" y="-5.41" width="2.34" height="5.85" rx="0.65" fill="#e9b02c"/>
</g>
<g><animate attributeName="opacity" values="0;1;0" dur="1.2s" begin="0s" repeatCount="indefinite"/>
<polygon points="68.19,-97.46 70.25,-92.50 75.61,-92.07 71.53,-88.57 72.77,-83.34 68.19,-86.14 63.60,-83.34 64.85,-88.57 60.76,-92.07 66.12,-92.50" fill="#f6c343"/>
</g>
</g>
<g transform="translate(819.7,421.8) scale(0.566)">
<ellipse cx="5.11" cy="9.53" rx="37.75" ry="4.89" fill="#000" opacity="0.45" filter="url(#sh17)"/>
<g transform="translate(0.00,0.00)">
<animateTransform attributeName="transform" type="translate" values="-6.80 0;6.80 0;-6.80 0" dur="1.72s" begin="-0.21s" calcMode="spline" keySplines="0.42 0 0.58 1;0.42 0 0.58 1" additive="sum" repeatCount="indefinite"/>
<g clip-path="url(#clip18)">
<rect x="-31.44524524810198" y="-62.143886747559684" width="79.93982783514107" height="68.32714143336503" fill="url(#gf21)"/>
<polygon points="-30.45,-49.18 30.45,-49.18 47.49,-61.14 -7.31,-61.14" fill="url(#gt19)"/>
<polygon points="30.45,-49.18 47.49,-61.14 47.49,-4.98 30.45,5.18" fill="url(#gs20)"/>
</g>
<rect x="-16.44" y="-27.46" width="13.40" height="5.48" rx="2.74" fill="#151515"/>
<rect x="3.04" y="-27.46" width="13.40" height="5.48" rx="2.74" fill="#151515"/>
</g>
</g>
<g transform="translate(456.1,435.2) scale(0.571)">
<ellipse cx="5.21" cy="10.13" rx="38.47" ry="4.99" fill="#000" opacity="0.45" filter="url(#sh22)"/>
<g transform="translate(0.00,0.00) rotate(8.0 5.21 5.70)">
<animateTransform attributeName="transform" type="translate" values="0 0;0 -4.12;0 0" dur="1.5s" begin="-0.76s" calcMode="spline" keySplines="0.42 0 0.58 1;0.42 0 0.58 1" additive="sum" repeatCount="indefinite"/>
<animateTransform attributeName="transform" type="rotate" values="0 5.21 5.70;3 5.21 5.70;0 5.21 5.70" dur="2.4s" begin="0s" calcMode="spline" keySplines="0.42 0 0.58 1;0.42 0 0.58 1" additive="sum" repeatCount="indefinite"/>
<g clip-path="url(#clip23)">
<rect x="-32.0208233960702" y="-62.88391579494739" width="81.4133078939397" height="69.58107954143864" fill="url(#gf26)"/>
<polygon points="-31.02,-49.70 31.02,-49.70 48.39,-61.88 -7.44,-61.88" fill="url(#gt24)"/>
<polygon points="31.02,-49.70 48.39,-61.88 48.39,-4.66 31.02,5.70" fill="url(#gs25)"/>
</g>
<rect x="-19.23" y="-27.56" width="13.65" height="5.58" rx="2.79" fill="#151515" transform="rotate(-15.0 -12.41 -24.77)"/>
<rect x="5.58" y="-27.56" width="13.65" height="5.58" rx="2.79" fill="#151515" transform="rotate(15.0 12.41 -24.77)"/>
</g>
<path d="M-17.65,1.27 q2.33,15.51 19.39,15.51 q17.06,0 19.39,-15.51 Z" fill="#e6e2d8"/>
<path d="M-17.65,1.27 q19.39,6.20 38.78,0" stroke="#c9c4b8" stroke-width="1.16" fill="none"/>
<ellipse cx="1.74" cy="1.27" rx="19.39" ry="3.88" fill="#c9c4b8"/>
</g>
<g transform="translate(215.8,705.2) scale(0.671)">
<ellipse cx="5.97" cy="14.80" rx="44.06" ry="5.71" fill="#000" opacity="0.45" filter="url(#sh27)"/>
<g transform="translate(0.00,0.00)">
<animateTransform attributeName="transform" type="translate" values="0 0;0 -6.69;0 0" dur="0.7s" begin="-0.36s" calcMode="spline" keySplines="0.42 0 0.58 1;0.42 0 0.58 1" additive="sum" repeatCount="indefinite"/>
<g clip-path="url(#clip28)">
<rect x="-36.53502252074283" y="-68.68788609809792" width="92.96965765310165" height="79.41558477733258" fill="url(#gf31)"/>
<polygon points="-35.54,-53.73 35.54,-53.73 55.43,-67.69 -8.53,-67.69" fill="url(#gt29)"/>
<polygon points="35.54,-53.73 55.43,-67.69 55.43,-2.14 35.54,9.73" fill="url(#gs30)"/>
</g>
<rect x="-22.03" y="-28.37" width="15.64" height="6.40" rx="3.20" fill="#151515"/>
<rect x="6.40" y="-28.37" width="15.64" height="6.40" rx="3.20" fill="#151515"/>
</g>
<path d="M-20.22,4.65 q2.67,17.77 22.21,17.77 q19.54,0 22.21,-17.77 Z" fill="#e6e2d8"/>
<path d="M-20.22,4.65 q22.21,7.11 44.42,0" stroke="#c9c4b8" stroke-width="1.33" fill="none"/>
<ellipse cx="1.99" cy="4.65" rx="22.21" ry="4.44" fill="#f2cf6b"/>
<ellipse cx="1.99" cy="2.87" rx="15.99" ry="3.11" fill="#f5a06e"/>
<g opacity="0"><animate attributeName="opacity" values="0;0.9;0" dur="1.6s" begin="0.00s" repeatCount="indefinite"/><animateTransform attributeName="transform" type="translate" values="0 0;0 -22.21" dur="1.6s" begin="0.00s" additive="sum" repeatCount="indefinite"/>
<path d="M-6.01,-0.43 q2.67,-5.33 0,-10.66" stroke="#ddd" stroke-width="1.55" fill="none" stroke-linecap="round"/></g>
<g opacity="0"><animate attributeName="opacity" values="0;0.9;0" dur="1.6s" begin="-0.53s" repeatCount="indefinite"/><animateTransform attributeName="transform" type="translate" values="0 0;0 -22.21" dur="1.6s" begin="-0.53s" additive="sum" repeatCount="indefinite"/>
<path d="M2.88,-0.43 q2.67,-5.33 0,-10.66" stroke="#ddd" stroke-width="1.55" fill="none" stroke-linecap="round"/></g>
<g opacity="0"><animate attributeName="opacity" values="0;0.9;0" dur="1.6s" begin="-1.06s" repeatCount="indefinite"/><animateTransform attributeName="transform" type="translate" values="0 0;0 -22.21" dur="1.6s" begin="-1.06s" additive="sum" repeatCount="indefinite"/>
<path d="M11.76,-0.43 q2.67,-5.33 0,-10.66" stroke="#ddd" stroke-width="1.55" fill="none" stroke-linecap="round"/></g>
</g>
<g transform="translate(215.8,667.7) scale(1.000) translate(-215.8,-667.7)" opacity="0.96"><rect x="97.6" y="632.7" width="236.4" height="27.0" rx="13.5" fill="#f0ede6" stroke="#2c2c2c" stroke-width="1"/><path d="M210.8,658.7 L215.8,666.7 L220.8,658.7 Z" fill="#f0ede6" stroke="#f0ede6"/><text x="215.8" y="651.6" font-size="15" font-family="system-ui,sans-serif" fill="#1a1a1a" text-anchor="middle">まだ起きている。 会う、取引。</text></g>
</svg>