<svg xmlns="http://www.w3.org/2000/svg" viewBox="0 0 480 360" width="480" height="360" shape-rendering="crispEdges"><path d="M290.00 174.00h80.00v5.00h-80.00zM290.00 179.00h80.00v5.00h-80.00zM290.00 184.00h5.00v5.00h-5.00zM305.00 184.00h50.00v5.00h-50.00zM365.00 184.00h5.00v5.00h-5.00zM290.00 189.00h5.00v5.00h-5.00zM305.00 189.00h5.00v5.00h-5.00zM350.00 189.00h5.00v5.00h-5.00zM365.00 189.00h5.00v5.00h-5.00zM290.00 194.00h5.00v5.00h-5.00zM305.00 194.00h5.00v5.00h-5.00zM320.00 194.00h20.00v5.00h-20.00zM350.00 194.00h5.00v5.00h-5.00zM365.00 194.00h5.00v5.00h-5.00zM290.00 199.00h5.00v5.00h-5.00zM305.00 199.00h5.00v5.00h-5.00zM350.00 199.00h5.00v5.00h-5.00zM365.00 199.00h5.00v5.00h-5.00zM290.00 204.00h5.00v5.00h-5.00zM365.00 204.00h5.00v5.00h-5.00zM290.00 209.00h5.00v5.00h-5.00zM365.00 209.00h5.00v5.00h-5.00z" fill="#f0ede6" shape-rendering="crispEdges"/></svg>