<svg xmlns="http://www.w3.org/2000/svg" viewBox="0 0 320 300" width="320" height="300"><rect width="320" height="300" fill="#161616"/><defs><filter id="sh47" x="-30%" y="-80%" width="160%" height="260%"><feGaussianBlur stdDeviation="3.35"/></filter><clipPath id="clip48"><path d="M-24.39,27.92 Q-31.27,27.92 -31.27,21.04 L-31.27,-21.04 Q-31.27,-27.92 -25.16,-31.07 L-13.61,-37.04 Q-7.50,-40.20 -0.63,-40.20 L41.90,-40.20 Q48.77,-40.20 48.77,-33.32 L48.77,10.60 Q48.77,17.48 42.87,21.00 L37.17,24.39 Q31.27,27.92 24.39,27.92 Z"/></clipPath><linearGradient id="gt49" x1="0" y1="0" x2="1" y2="1"><stop offset="0" stop-color="#ffffff"/><stop offset="1" stop-color="#ffffff"/></linearGradient><linearGradient id="gs50" x1="0" y1="0" x2="0" y2="1"><stop offset="0" stop-color="#bfbdb7"/><stop offset="1" stop-color="#a2a19c"/></linearGradient><linearGradient id="gf51" x1="0" y1="0" x2="0" y2="1"><stop offset="0" stop-color="#f9f6ef"/><stop offset="1" stop-color="#e1ded8"/></linearGradient></defs>
<g transform="translate(160,190) scale(1.6)"><ellipse cx="5.25" cy="32.38" rx="38.77" ry="5.02" fill="#000" opacity="0.45" filter="url(#sh47)"/>
<g transform="translate(0.00,0.00)">
<animateTransform attributeName="transform" type="translate" values="0 0;0 -2.47;0 0" dur="0.7s" begin="-0.36s" calcMode="spline" keySplines="0.42 0 0.58 1;0.42 0 0.58 1" additive="sum" repeatCount="indefinite"/>
<g clip-path="url(#clip48)">
<rect x="-32.26537392017123" y="-41.198337897363004" width="82.03935723563833" height="70.1138503260873" fill="url(#gf51)"/>
<polygon points="-31.27,-27.92 31.27,-27.92 48.77,-40.20 -7.50,-40.20" fill="url(#gt49)"/>
<polygon points="31.27,-27.92 48.77,-40.20 48.77,17.48 31.27,27.92" fill="url(#gs50)"/>
</g>
<rect x="-19.38" y="-5.61" width="13.76" height="5.63" rx="2.81" fill="#151515"/>
<rect x="5.63" y="-5.61" width="13.76" height="5.63" rx="2.81" fill="#151515"/>
</g>
<path d="M-17.79,23.45 q2.34,15.63 19.54,15.63 q17.20,0 19.54,-15.63 Z" fill="#e6e2d8"/>
<path d="M-17.79,23.45 q19.54,6.25 39.08,0" stroke="#c9c4b8" stroke-width="1.17" fill="none"/>
<ellipse cx="1.75" cy="23.45" rx="19.54" ry="3.91" fill="#f2cf6b"/>
<ellipse cx="1.75" cy="21.89" rx="14.07" ry="2.74" fill="#f5a06e"/>
<g opacity="0"><animate attributeName="opacity" values="0;0.9;0" dur="1.6s" begin="0.00s" repeatCount="indefinite"/><animateTransform attributeName="transform" type="translate" values="0 0;0 -19.54" dur="1.6s" begin="0.00s" additive="sum" repeatCount="indefinite"/>
<path d="M-5.28,18.98 q2.34,-4.69 0,-9.38" stroke="#ddd" stroke-width="1.37" fill="none" stroke-linecap="round"/></g>
<g opacity="0"><animate attributeName="opacity" values="0;0.9;0" dur="1.6s" begin="-0.53s" repeatCount="indefinite"/><animateTransform attributeName="transform" type="translate" values="0 0;0 -19.54" dur="1.6s" begin="-0.53s" additive="sum" repeatCount="indefinite"/>
<path d="M2.53,18.98 q2.34,-4.69 0,-9.38" stroke="#ddd" stroke-width="1.37" fill="none" stroke-linecap="round"/></g>
<g opacity="0"><animate attributeName="opacity" values="0;0.9;0" dur="1.6s" begin="-1.06s" repeatCount="indefinite"/><animateTransform attributeName="transform" type="translate" values="0 0;0 -19.54" dur="1.6s" begin="-1.06s" additive="sum" repeatCount="indefinite"/>
<path d="M10.35,18.98 q2.34,-4.69 0,-9.38" stroke="#ddd" stroke-width="1.37" fill="none" stroke-linecap="round"/></g></g>
</svg>