<svg xmlns="http://www.w3.org/2000/svg" viewBox="0 0 320 300" width="320" height="300"><rect width="320" height="300" fill="#161616"/><defs><filter id="ds33" x="-30%" y="-80%" width="160%" height="260%"><feGaussianBlur stdDeviation="3.18"/></filter></defs>
<g transform="translate(160,190) scale(1.6)"><ellipse cx="0.00" cy="29.15" rx="29.68" ry="4.24" fill="#000" opacity="0.45" filter="url(#ds33)"/>
<g>
<animateTransform attributeName="transform" type="translate" values="0 0;0 -3.28;0 0" dur="0.8s" begin="-0.43s" calcMode="spline" keySplines="0.42 0 0.58 1;0.42 0 0.58 1" additive="sum" repeatCount="indefinite"/>
<path d="M-30.29 -39.12h60.57v5.05h-60.57zM-35.33 -34.07h5.05v5.05h-5.05zM30.29 -34.07h5.05v5.05h-5.05zM-35.33 -29.02h5.05v5.05h-5.05zM-25.24 -29.02h5.05v5.05h-5.05zM-15.14 -29.02h5.05v5.05h-5.05zM-5.05 -29.02h5.05v5.05h-5.05zM5.05 -29.02h5.05v5.05h-5.05zM15.14 -29.02h5.05v5.05h-5.05zM30.29 -29.02h5.05v5.05h-5.05zM-35.33 -23.98h5.05v5.05h-5.05zM30.29 -23.98h5.05v5.05h-5.05zM-35.33 -18.93h5.05v5.05h-5.05zM-20.19 -18.93h5.05v5.05h-5.05zM15.14 -18.93h5.05v5.05h-5.05zM30.29 -18.93h5.05v5.05h-5.05zM-35.33 -13.88h5.05v5.05h-5.05zM-25.24 -13.88h5.05v5.05h-5.05zM-15.14 -13.88h5.05v5.05h-5.05zM10.10 -13.88h5.05v5.05h-5.05zM20.19 -13.88h5.05v5.05h-5.05zM30.29 -13.88h5.05v5.05h-5.05zM-35.33 -8.83h5.05v5.05h-5.05zM-10.10 -8.83h5.05v5.05h-5.05zM5.05 -8.83h5.05v5.05h-5.05zM30.29 -8.83h5.05v5.05h-5.05zM-35.33 -3.79h5.05v5.05h-5.05zM-5.05 -3.79h10.10v5.05h-10.10zM30.29 -3.79h5.05v5.05h-5.05zM-35.33 1.26h5.05v5.05h-5.05zM30.29 1.26h5.05v5.05h-5.05zM-35.33 6.31h5.05v5.05h-5.05zM-20.19 6.31h5.05v5.05h-5.05zM-10.10 6.31h5.05v5.05h-5.05zM0.00 6.31h5.05v5.05h-5.05zM10.10 6.31h5.05v5.05h-5.05zM20.19 6.31h5.05v5.05h-5.05zM30.29 6.31h5.05v5.05h-5.05zM-35.33 11.36h5.05v5.05h-5.05zM30.29 11.36h5.05v5.05h-5.05zM-30.29 16.40h60.57v5.05h-60.57zM-25.24 21.45h10.10v5.05h-10.10zM15.14 21.45h10.10v5.05h-10.10z" fill="#c4d977" shape-rendering="crispEdges"/>
</g>
<g><animateTransform attributeName="transform" type="translate" values="0 0;0 -9.09;0 0" dur="0.9s" begin="0.00s" calcMode="spline" keySplines="0.42 0 0.58 1;0.42 0 0.58 1" additive="sum" repeatCount="indefinite"/><path d="M45.43 6.31h10.10v5.05h-10.10zM40.38 11.36h20.19v5.05h-20.19zM40.38 16.40h20.19v5.05h-20.19zM45.43 21.45h10.10v5.05h-10.10z" fill="#f6c343" shape-rendering="crispEdges"/></g><g><animateTransform attributeName="transform" type="translate" values="0 0;0 -9.09;0 0" dur="0.9s" begin="-0.30s" calcMode="spline" keySplines="0.42 0 0.58 1;0.42 0 0.58 1" additive="sum" repeatCount="indefinite"/><path d="M70.67 -8.83h10.10v5.05h-10.10zM65.62 -3.79h20.19v5.05h-20.19zM65.62 1.26h20.19v5.05h-20.19zM70.67 6.31h10.10v5.05h-10.10z" fill="#f6c343" shape-rendering="crispEdges"/></g><g><animateTransform attributeName="transform" type="translate" values="0 0;0 -9.09;0 0" dur="0.9s" begin="-0.60s" calcMode="spline" keySplines="0.42 0 0.58 1;0.42 0 0.58 1" additive="sum" repeatCount="indefinite"/><path d="M95.90 -23.98h10.10v5.05h-10.10zM90.86 -18.93h20.19v5.05h-20.19zM90.86 -13.88h20.19v5.05h-20.19zM95.90 -8.83h10.10v5.05h-10.10z" fill="#f6c343" shape-rendering="crispEdges"/></g>
<g transform="translate(41.33,-55.21) scale(0.625) translate(-41.33,55.21)">
<rect x="41.33" y="-64.21" width="54" height="16" rx="8" fill="#5ec99a"/>
<text x="68.33" y="-52.21" font-size="10" font-family="sans-serif" font-weight="bold" text-anchor="middle" fill="#151515">worker</text>
</g></g>
</svg>