<svg xmlns="http://www.w3.org/2000/svg" viewBox="0 0 320 300" width="320" height="300"><rect width="320" height="300" fill="#161616"/><defs><filter id="sh82" x="-30%" y="-80%" width="160%" height="260%"><feGaussianBlur stdDeviation="3.26"/></filter><clipPath id="clip83"><path d="M-23.75,27.18 Q-30.45,27.18 -30.45,20.49 L-30.45,-20.49 Q-30.45,-27.18 -24.50,-30.26 L-13.26,-36.07 Q-7.31,-39.14 -0.61,-39.14 L40.80,-39.14 Q47.49,-39.14 47.49,-32.45 L47.49,10.32 Q47.49,17.02 41.74,20.45 L36.20,23.75 Q30.45,27.18 23.75,27.18 Z"/></clipPath><linearGradient id="gt84" x1="0" y1="0" x2="1" y2="1"><stop offset="0" stop-color="#f6c59d"/><stop offset="1" stop-color="#e9ba95"/></linearGradient><linearGradient id="gs85" x1="0" y1="0" x2="0" y2="1"><stop offset="0" stop-color="#9f8066"/><stop offset="1" stop-color="#886d57"/></linearGradient><linearGradient id="gf86" x1="0" y1="0" x2="0" y2="1"><stop offset="0" stop-color="#d1a786"/><stop offset="1" stop-color="#bc9779"/></linearGradient></defs>
<g transform="translate(160,190) scale(1.6)"><ellipse cx="5.11" cy="31.53" rx="37.75" ry="4.89" fill="#000" opacity="0.45" filter="url(#sh82)"/>
<g transform="translate(0.00,0.00)">
<animateTransform attributeName="transform" type="translate" values="-2.40 0;2.40 0;-2.40 0" dur="1.72s" begin="-0.21s" calcMode="spline" keySplines="0.42 0 0.58 1;0.42 0 0.58 1" additive="sum" repeatCount="indefinite"/>
<g clip-path="url(#clip83)">
<rect x="-31.44524524810198" y="-40.143886747559684" width="79.93982783514107" height="68.32714143336503" fill="url(#gf86)"/>
<polygon points="-30.45,-27.18 30.45,-27.18 47.49,-39.14 -7.31,-39.14" fill="url(#gt84)"/>
<polygon points="30.45,-27.18 47.49,-39.14 47.49,17.02 30.45,27.18" fill="url(#gs85)"/>
</g>
<circle cx="-9.74" cy="-2.72" r="7.00" fill="#151515"/>
<circle cx="-11.84" cy="-5.38" r="3.22" fill="#ffffff" opacity="0.95"/>
<circle cx="-7.36" cy="-0.62" r="1.40" fill="#ffffff" opacity="0.8"/>
<circle cx="9.74" cy="-2.72" r="7.00" fill="#151515"/>
<circle cx="7.64" cy="-5.38" r="3.22" fill="#ffffff" opacity="0.95"/>
<circle cx="12.12" cy="-0.62" r="1.40" fill="#ffffff" opacity="0.8"/>
<circle cx="0.00" cy="6.52" r="2.01" fill="#151515"/>
<path d="M11.57,-33.16 q1.22,-11.96 -1.22,-22.83" stroke="#4fae7c" stroke-width="3.65" fill="none" stroke-linecap="round"/>
<ellipse cx="-0.61" cy="-56.00" rx="13.40" ry="5.98" fill="#5ec99a" transform="rotate(-30 -0.61 -56.00)"/>
<ellipse cx="23.75" cy="-58.17" rx="13.40" ry="5.98" fill="#5ec99a" transform="rotate(30 23.75 -58.17)"/>
</g></g>
</svg>