<svg xmlns="http://www.w3.org/2000/svg" viewBox="0 0 320 300" width="320" height="300"><rect width="320" height="300" fill="#161616"/><defs><filter id="sh57" x="-30%" y="-80%" width="160%" height="260%"><feGaussianBlur stdDeviation="3.52"/></filter><clipPath id="clip58"><path d="M-25.66,29.37 Q-32.90,29.37 -32.90,22.14 L-32.90,-22.14 Q-32.90,-29.37 -26.47,-32.70 L-14.33,-38.98 Q-7.90,-42.30 -0.66,-42.30 L44.08,-42.30 Q51.32,-42.30 51.32,-35.06 L51.32,11.15 Q51.32,18.39 45.11,22.10 L39.12,25.67 Q32.90,29.37 25.66,29.37 Z"/></clipPath><linearGradient id="gt59" x1="0" y1="0" x2="1" y2="1"><stop offset="0" stop-color="#48abff"/><stop offset="1" stop-color="#44a2ff"/></linearGradient><linearGradient id="gs60" x1="0" y1="0" x2="0" y2="1"><stop offset="0" stop-color="#2e6fcb"/><stop offset="1" stop-color="#275eac"/></linearGradient><linearGradient id="gf61" x1="0" y1="0" x2="0" y2="1"><stop offset="0" stop-color="#3d91ff"/><stop offset="1" stop-color="#3783ef"/></linearGradient></defs>
<g transform="translate(160,190) scale(1.6)"><ellipse cx="5.53" cy="34.07" rx="40.79" ry="5.29" fill="#000" opacity="0.45" filter="url(#sh57)"/>
<g transform="translate(0.00,0.00)">
<animateTransform attributeName="transform" type="translate" values="0 0;0 -3.64;0 0" dur="0.8s" begin="-0.77s" calcMode="spline" keySplines="0.42 0 0.58 1;0.42 0 0.58 1" additive="sum" repeatCount="indefinite"/>
<g clip-path="url(#clip58)">
<rect x="-33.89902534269145" y="-43.29874686917472" width="86.22150487729012" height="73.67287663943495" fill="url(#gf61)"/>
<polygon points="-32.90,-29.37 32.90,-29.37 51.32,-42.30 -7.90,-42.30" fill="url(#gt59)"/>
<polygon points="32.90,-29.37 51.32,-42.30 51.32,18.39 32.90,29.37" fill="url(#gs60)"/>
</g>
<rect x="-19.08" y="-5.90" width="14.48" height="5.92" rx="2.96" fill="#151515"/>
<rect x="4.61" y="-5.90" width="14.48" height="5.92" rx="2.96" fill="#151515"/>
</g>
<g opacity="0"><animate attributeName="opacity" values="0;1;1;0" dur="1.8s" begin="0.0s" repeatCount="indefinite"/><animateTransform attributeName="transform" type="translate" values="0 0;0 -20.56" dur="1.8s" begin="0.0s" additive="sum" repeatCount="indefinite"/>
<circle cx="63.07" cy="17.62" r="5.87" fill="#f6c343" stroke="#e9b02c" stroke-width="1.17"/>
<rect x="62.01" y="14.98" width="2.11" height="5.29" rx="0.59" fill="#e9b02c"/>
</g>
<g opacity="0"><animate attributeName="opacity" values="0;1;1;0" dur="1.8s" begin="-0.6s" repeatCount="indefinite"/><animateTransform attributeName="transform" type="translate" values="0 0;0 -20.56" dur="1.8s" begin="-0.6s" additive="sum" repeatCount="indefinite"/>
<circle cx="68.95" cy="17.62" r="5.87" fill="#f6c343" stroke="#e9b02c" stroke-width="1.17"/>
<rect x="67.89" y="14.98" width="2.11" height="5.29" rx="0.59" fill="#e9b02c"/>
</g>
<g opacity="0"><animate attributeName="opacity" values="0;1;1;0" dur="1.8s" begin="-1.2s" repeatCount="indefinite"/><animateTransform attributeName="transform" type="translate" values="0 0;0 -20.56" dur="1.8s" begin="-1.2s" additive="sum" repeatCount="indefinite"/>
<circle cx="74.82" cy="17.62" r="5.87" fill="#f6c343" stroke="#e9b02c" stroke-width="1.17"/>
<rect x="73.76" y="14.98" width="2.11" height="5.29" rx="0.59" fill="#e9b02c"/>
</g>
<g><animate attributeName="opacity" values="0;1;0" dur="1.2s" begin="0s" repeatCount="indefinite"/>
<polygon points="61.58,-68.15 63.44,-63.66 68.28,-63.28 64.59,-60.12 65.72,-55.39 61.58,-57.93 57.43,-55.39 58.56,-60.12 54.87,-63.28 59.71,-63.66" fill="#f6c343"/>
</g></g>
</svg>