<svg xmlns="http://www.w3.org/2000/svg" viewBox="0 0 320 300" width="320" height="300"><rect width="320" height="300" fill="#161616"/><defs><filter id="sh62" x="-30%" y="-80%" width="160%" height="260%"><feGaussianBlur stdDeviation="3.39"/></filter><clipPath id="clip63"><path d="M-24.67,28.24 Q-31.63,28.24 -31.63,21.28 L-31.63,-21.28 Q-31.63,-28.24 -25.45,-31.43 L-13.77,-37.47 Q-7.59,-40.66 -0.63,-40.66 L42.38,-40.66 Q49.34,-40.66 49.34,-33.71 L49.34,10.72 Q49.34,17.68 43.36,21.24 L37.60,24.68 Q31.63,28.24 24.67,28.24 Z"/></clipPath><linearGradient id="gt64" x1="0" y1="0" x2="1" y2="1"><stop offset="0" stop-color="#48abff"/><stop offset="1" stop-color="#44a2ff"/></linearGradient><linearGradient id="gs65" x1="0" y1="0" x2="0" y2="1"><stop offset="0" stop-color="#2e6fcb"/><stop offset="1" stop-color="#275eac"/></linearGradient><linearGradient id="gf66" x1="0" y1="0" x2="0" y2="1"><stop offset="0" stop-color="#3d91ff"/><stop offset="1" stop-color="#3783ef"/></linearGradient></defs>
<g transform="translate(160,190) scale(1.6)"><ellipse cx="5.31" cy="32.76" rx="39.22" ry="5.08" fill="#000" opacity="0.45" filter="url(#sh62)"/>
<g transform="translate(0.00,0.00)">
<animateTransform attributeName="transform" type="translate" values="0 0;0 -3.50;0 0" dur="0.8s" begin="-0.77s" calcMode="spline" keySplines="0.42 0 0.58 1;0.42 0 0.58 1" additive="sum" repeatCount="indefinite"/>
<g clip-path="url(#clip63)">
<rect x="-32.627664425359065" y="-41.66413997546165" width="82.9668209289192" height="70.90312606953223" fill="url(#gf66)"/>
<polygon points="-31.63,-28.24 31.63,-28.24 49.34,-40.66 -7.59,-40.66" fill="url(#gt64)"/>
<polygon points="31.63,-28.24 49.34,-40.66 49.34,17.68 31.63,28.24" fill="url(#gs65)"/>
</g>
<rect x="-18.34" y="-5.67" width="13.92" height="5.69" rx="2.85" fill="#151515"/>
<rect x="4.43" y="-5.67" width="13.92" height="5.69" rx="2.85" fill="#151515"/>
</g>
<g opacity="0"><animate attributeName="opacity" values="0;1;1;0" dur="1.8s" begin="0.0s" repeatCount="indefinite"/><animateTransform attributeName="transform" type="translate" values="0 0;0 -19.77" dur="1.8s" begin="0.0s" additive="sum" repeatCount="indefinite"/>
<circle cx="60.63" cy="16.94" r="5.65" fill="#f6c343" stroke="#e9b02c" stroke-width="1.13"/>
<rect x="59.62" y="14.40" width="2.03" height="5.08" rx="0.56" fill="#e9b02c"/>
</g>
<g opacity="0"><animate attributeName="opacity" values="0;1;1;0" dur="1.8s" begin="-0.6s" repeatCount="indefinite"/><animateTransform attributeName="transform" type="translate" values="0 0;0 -19.77" dur="1.8s" begin="-0.6s" additive="sum" repeatCount="indefinite"/>
<circle cx="66.28" cy="16.94" r="5.65" fill="#f6c343" stroke="#e9b02c" stroke-width="1.13"/>
<rect x="65.27" y="14.40" width="2.03" height="5.08" rx="0.56" fill="#e9b02c"/>
</g>
<g opacity="0"><animate attributeName="opacity" values="0;1;1;0" dur="1.8s" begin="-1.2s" repeatCount="indefinite"/><animateTransform attributeName="transform" type="translate" values="0 0;0 -19.77" dur="1.8s" begin="-1.2s" additive="sum" repeatCount="indefinite"/>
<circle cx="71.93" cy="16.94" r="5.65" fill="#f6c343" stroke="#e9b02c" stroke-width="1.13"/>
<rect x="70.91" y="14.40" width="2.03" height="5.08" rx="0.56" fill="#e9b02c"/>
</g>
<g><animate attributeName="opacity" values="0;1;0" dur="1.2s" begin="0s" repeatCount="indefinite"/>
<polygon points="59.20,-65.51 60.99,-61.20 65.64,-60.83 62.10,-57.79 63.18,-53.25 59.20,-55.69 55.21,-53.25 56.30,-57.79 52.75,-60.83 57.41,-61.20" fill="#f6c343"/>
</g></g>
</svg>